<?xml version="1.0" encoding="utf-8"?>
<!-- Generator: Adobe Illustrator 25.3.1, SVG Export Plug-In . SVG Version: 6.00 Build 0)  -->
<svg version="1.1" xmlns="http://www.w3.org/2000/svg" xmlns:xlink="http://www.w3.org/1999/xlink" x="0px" y="0px"
	 viewBox="0 0 646 619.52" style="enable-background:new 0 0 646 619.52;" xml:space="preserve">
<style type="text/css">
	.st0{fill:#BE5F47;}
	.st1{fill:#FFFFFF;}
</style>
<g id="Layer_1">
</g>
<g id="Capa_2">
	<circle class="st0" cx="325" cy="317" r="290"/>
	<path class="st1" d="M483.68,271.95c0,0,7.82-105.12-100.77-139s-160.72,69.5-160.72,69.5s-37.36,78.19,4.34,135.52
		s90.35,64.29,103.38,65.16c13.03,0.87-94.69,12.16-139.87-90.35s36.49-178.09,36.49-178.09s66.89-64.29,166.8-26.06
		S486.29,265,483.68,271.95z"/>
	<path class="st1" d="M167.2,350.94c0,0-7.82,105.12,100.77,139s160.72-69.5,160.72-69.5s37.36-78.19-4.34-135.52
		s-90.35-64.29-103.38-65.16c-13.03-0.87,94.69-12.16,139.87,90.35S424.34,488.2,424.34,488.2s-66.89,64.29-166.8,26.06
		S164.59,357.89,167.2,350.94z"/>
	<circle class="st1" cx="320.79" cy="314.08" r="22.59"/>
</g>
</svg>
